<?xml version="1.0" encoding="UTF-8"?>
<svg id="_レイヤー_2" data-name="レイヤー 2" xmlns="http://www.w3.org/2000/svg" width='200' height='50' viewBox="0 0 310 75">
  <defs>
    <style>
      .cls-1 {
        font-size: 38.88px;
      }

      .cls-1, .cls-2, .cls-3, .cls-4, .cls-5, .cls-6 {
        fill: #d1d1d1;
      }

      .cls-1, .cls-3, .cls-4, .cls-5, .cls-6, .cls-7 {
        font-family: 'GenEiGothicN-R';
      }

      .cls-8 {
        letter-spacing: -.5em;
      }

      .cls-3 {
        font-size: 14.63px;
      }

      .cls-9 {
        letter-spacing: .25em;
      }

      .cls-4 {
        font-size: 32.78px;
      }

      .cls-10 {
        fill: #0a1d38;
      }

      .cls-11 {
        fill: none;
        stroke: #b3b3b3;
        stroke-miterlimit: 10;
        stroke-width: 1.63px;
      }

      .cls-12 {
        fill: #009fe8;
      }

      .cls-13 {
        fill: #1d2087;
      }

      .cls-5 {
        font-size: 18.28px;
      }

      .cls-6 {
        font-size: 18.28px;
      }

      .cls-14 {
        letter-spacing: .25em;
      }

      .cls-7 {
        fill: #3d3d3d;
        font-size: 19px;
      }
    </style>
  </defs>
  <g id="_レイヤー_7" data-name="レイヤー 7" transform="translate(-1217 -239)">
    <g>
      <g>
        <g>
          <polygon class="cls-12" points="1391.44 315.74 1360.72 237.2 1352.54 237.2 1348.59 237.2 1340.4 237.2 1340.4 315.74 1352.54 315.74 1352.54 247.3 1379.31 315.74 1391.44 315.74"/>
          <rect class="cls-12" x="1288.9" y="237.42" width="38.08" height="11.22"/>
          <rect class="cls-12" x="1288.9" y="270.86" width="38.08" height="11.22"/>
          <rect class="cls-12" x="1288.9" y="304.52" width="38.08" height="11.22"/>
          <g>
            <polygon class="cls-13" points="1465.86 304.52 1453.33 304.52 1453.33 237.2 1441.19 237.2 1441.19 315.74 1444.34 315.74 1453.33 315.74 1465.86 315.74 1477.99 315.74 1477.99 304.52 1477.99 237.2 1465.86 237.2 1465.86 304.52"/>
            <polygon class="cls-13" points="1416.3 305.64 1389.53 237.2 1377.39 237.2 1408.11 315.74 1416.3 315.74 1420.25 315.74 1428.44 315.74 1428.44 237.2 1416.3 237.2 1416.3 305.64"/>
            <polygon class="cls-13" points="1509.19 237.2 1497.05 237.2 1497.05 248.42 1497.05 304.52 1484.64 304.52 1484.64 315.74 1497.05 315.74 1509.19 315.74 1509.19 304.52 1509.19 248.42 1521.6 248.42 1521.6 237.2 1509.19 237.2"/>
          </g>
          <polygon class="cls-12" points="1263.75 237.2 1263.75 304.52 1252.06 304.52 1252.06 237.2 1239.92 237.2 1239.92 304.52 1228.22 304.52 1228.22 237.2 1216.09 237.2 1216.09 292.45 1239.38 315.74 1239.92 315.74 1252.06 315.74 1263.75 315.74 1275.47 315.74 1275.89 315.74 1275.89 237.2 1263.75 237.2"/>
        </g>
      </g>
    </g>
  </g>
</svg>